<svg data-v-423bf9ae="" xmlns="http://www.w3.org/2000/svg" viewBox="0 0 662 90" class="iconLeftSlogan"><!----><!----><!----><g data-v-423bf9ae="" id="0c1cd45b-2158-4c28-bbef-4c2eeee5909b" fill="white" transform="matrix(4.559270569581267,0,0,4.559270569581267,90.04722004630548,-18.19148937769127)"><path d="M2.95 14.35L4.14 8.51L4.26 8.51L5.45 14.35L7.14 14.35L7.91 4.58L6.89 4.58L6.48 10.18L6.27 13.13L6.16 13.13L4.87 7.13L3.56 7.13L2.27 13.13L2.16 13.13L1.95 10.18L1.54 4.58L0.49 4.58L1.26 14.35ZM12.60 14.52C14.63 14.52 15.88 13.03 15.88 10.74C15.88 8.44 14.63 6.96 12.60 6.96C10.57 6.96 9.32 8.44 9.32 10.74C9.32 13.03 10.57 14.52 12.60 14.52ZM12.60 13.55C11.35 13.55 10.51 12.81 10.51 11.26L10.51 10.22C10.51 8.67 11.35 7.92 12.60 7.92C13.85 7.92 14.69 8.67 14.69 10.22L14.69 11.26C14.69 12.81 13.85 13.55 12.60 13.55ZM17.88 14.35L23.91 14.35L23.91 13.40L21.11 13.40L21.11 10.28C21.11 9.16 21.85 8.25 23.27 8.25L24.63 8.25L24.63 7.13L23.62 7.13C22.11 7.13 21.46 7.99 21.18 8.95L21.11 8.95L21.11 7.13L17.88 7.13L17.88 8.08L19.99 8.08L19.99 13.40L17.88 13.40ZM31.15 14.35L32.27 14.35L32.27 3.99L31.15 3.99L31.15 8.30L31.09 8.30C30.63 7.42 29.88 6.96 28.87 6.96C27.10 6.96 26.04 8.37 26.04 10.74C26.04 13.10 27.10 14.52 28.87 14.52C29.88 14.52 30.63 14.06 31.09 13.17L31.15 13.17ZM29.30 13.52C28.00 13.52 27.24 12.66 27.24 11.35L27.24 10.12C27.24 8.82 28.00 7.95 29.30 7.95C30.30 7.95 31.15 8.47 31.15 9.44L31.15 12.04C31.15 13.01 30.30 13.52 29.30 13.52ZM46.20 14.52C48.23 14.52 49.48 13.03 49.48 10.74C49.48 8.44 48.23 6.96 46.20 6.96C44.17 6.96 42.92 8.44 42.92 10.74C42.92 13.03 44.17 14.52 46.20 14.52ZM46.20 13.55C44.95 13.55 44.11 12.81 44.11 11.26L44.11 10.22C44.11 8.67 44.95 7.92 46.20 7.92C47.45 7.92 48.29 8.67 48.29 10.22L48.29 11.26C48.29 12.81 47.45 13.55 46.20 13.55ZM51.56 14.35L57.69 14.35L57.69 13.40L55.12 13.40L55.12 8.08L58.02 8.08L58.02 7.13L55.12 7.13L55.12 4.94L58.02 4.94L58.02 3.99L55.59 3.99C54.50 3.99 54.00 4.68 54.00 5.64L54.00 7.13L51.42 7.13L51.42 8.08L54.00 8.08L54.00 13.40L51.56 13.40ZM74.56 14.35L74.56 13.40L71.27 13.40L71.27 8.08L74.56 8.08L74.56 7.13L71.27 7.13L71.27 4.58L70.20 4.58L70.20 6.47C70.20 6.96 70.01 7.13 69.54 7.13L67.75 7.13L67.75 8.08L70.15 8.08L70.15 12.70C70.15 13.66 70.66 14.35 71.75 14.35ZM76.97 14.35L78.09 14.35L78.09 9.34C78.09 8.39 78.99 7.95 79.88 7.95C80.99 7.95 81.59 8.60 81.59 9.91L81.59 14.35L82.71 14.35L82.71 9.72C82.71 7.97 81.72 6.96 80.21 6.96C79.02 6.96 78.46 7.59 78.15 8.30L78.09 8.30L78.09 3.99L76.97 3.99ZM88.33 14.52C89.75 14.52 90.79 13.82 91.22 12.85L90.40 12.29C90.02 13.08 89.29 13.55 88.33 13.55C86.97 13.55 86.11 12.63 86.11 11.35L86.11 11.02L91.46 11.02L91.46 10.49C91.46 8.44 90.20 6.96 88.26 6.96C86.30 6.96 84.94 8.44 84.94 10.75C84.94 13.03 86.25 14.52 88.33 14.52ZM88.26 7.88C89.45 7.88 90.26 8.75 90.26 10.02L90.26 10.18L86.11 10.18L86.11 10.08C86.11 8.82 87.02 7.88 88.26 7.88ZM106.75 14.35L107.87 14.35L107.87 3.99L106.75 3.99L106.75 8.30L106.69 8.30C106.23 7.42 105.48 6.96 104.47 6.96C102.70 6.96 101.64 8.37 101.64 10.74C101.64 13.10 102.70 14.52 104.47 14.52C105.48 14.52 106.23 14.06 106.69 13.17L106.75 13.17ZM104.90 13.52C103.60 13.52 102.84 12.66 102.84 11.35L102.84 10.12C102.84 8.82 103.60 7.95 104.90 7.95C105.90 7.95 106.75 8.47 106.75 9.44L106.75 12.04C106.75 13.01 105.90 13.52 104.90 13.52ZM116.90 14.35L116.90 13.37L115.89 13.37L115.89 9.39C115.89 7.87 114.81 6.96 113.12 6.96C111.65 6.96 110.73 7.66 110.36 8.41L111.12 8.97C111.50 8.32 112.08 7.91 113.05 7.91C114.14 7.91 114.77 8.46 114.77 9.51L114.77 10.22L113.23 10.22C111.06 10.22 110.12 10.99 110.12 12.32C110.12 13.68 111.09 14.52 112.60 14.52C113.78 14.52 114.46 14 114.77 13.17L114.84 13.17C114.93 13.85 115.26 14.35 116.13 14.35ZM112.80 13.58C111.87 13.58 111.30 13.19 111.30 12.45L111.30 12.15C111.30 11.45 111.90 11.06 113.23 11.06L114.77 11.06L114.77 12.25C114.77 12.99 113.95 13.58 112.80 13.58ZM122.92 10.15L121.84 12.89L121.79 12.89L120.71 10.15L119.49 7.13L118.34 7.13L121.25 14.21L120.44 16.20L118.76 16.20L118.76 17.15L119.83 17.15C120.92 17.15 121.34 16.76 121.67 15.93L125.26 7.13L124.14 7.13Z"></path></g><!----><g data-v-423bf9ae="" id="db2d66f9-20e8-4fb4-9e02-cdf0b4996ba6" transform="matrix(2.8125,0,0,2.8125,-8.850001245737076,0)" stroke="none" fill="white"><path d="M16 8.204l7.065 3.915v7.761L16 23.796 8.935 19.88v-7.76L16 8.204m0-1.143l-8.065 4.47v8.939L16 24.939l8.065-4.47V11.53L16 7.061zM27.85 1v3.356H4.15V1h23.7m1-1H3.15v5.356h25.7V0zM27.85 27.644V31H4.15v-3.356h23.7m1-1H3.15V32h25.7v-5.356z"></path></g><!----><g data-v-423bf9ae="" id="bc593718-4e9c-4430-80b8-3f217951c036" fill="white" transform="matrix(2.1370658524469386,0,0,2.1370658524469386,89.16113399079669,51.921889893566316)"><path d="M2.16 12.38L7.70 12.38L7.70 13.02L1.46 13.02L1.46 3.78L2.16 3.78L2.16 12.38ZM17.16 12.38L23.00 12.38L23.00 13.02L16.46 13.02L16.46 3.78L22.78 3.78L22.78 4.42L17.16 4.42L17.16 7.99L21.60 7.99L21.60 8.65L17.16 8.65L17.16 12.38ZM38.32 13.02L37.16 10.12L32.73 10.12L31.58 13.02L30.84 13.02L34.54 3.78L35.36 3.78L39.06 13.02L38.32 13.02ZM33.00 9.48L36.90 9.48L35.29 5.45L34.96 4.47L34.94 4.47L34.61 5.42L33.00 9.48ZM54.73 13.02L53.90 13.02L51.25 9.02L51.21 9.02L48.48 9.02L48.48 13.02L47.78 13.02L47.78 3.78L51.21 3.78Q52.60 3.78 53.42 4.48Q54.24 5.18 54.24 6.40L54.24 6.40Q54.24 7.41 53.65 8.07Q53.06 8.74 52.04 8.93L52.04 8.93L54.73 13.02ZM48.48 4.42L48.48 8.36L51.20 8.36Q52.32 8.36 52.91 7.85Q53.51 7.35 53.51 6.40L53.51 6.40Q53.51 5.45 52.91 4.93Q52.32 4.42 51.20 4.42L51.20 4.42L48.48 4.42ZM70.84 3.78L70.84 13.02L69.97 13.02L65.07 5.77L64.39 4.54L64.37 4.54L64.41 5.70L64.41 13.02L63.74 13.02L63.74 3.78L64.62 3.78L69.51 11.02L70.21 12.26L70.18 11.10L70.18 3.78L70.84 3.78ZM92.83 12.38L98.67 12.38L98.67 13.02L92.13 13.02L92.13 3.78L98.45 3.78L98.45 4.42L92.83 4.42L92.83 7.99L97.27 7.99L97.27 8.65L92.83 8.65L92.83 12.38ZM114.52 3.78L110.96 13.02L110.14 13.02L106.57 3.78L107.32 3.78L110.05 10.93L110.54 12.36L111.03 10.93L113.78 3.78L114.52 3.78ZM124.00 12.38L129.84 12.38L129.84 13.02L123.30 13.02L123.30 3.78L129.61 3.78L129.61 4.42L124.00 4.42L124.00 7.99L128.44 7.99L128.44 8.65L124.00 8.65L124.00 12.38ZM145.81 13.02L144.98 13.02L142.34 9.02L142.30 9.02L139.57 9.02L139.57 13.02L138.87 13.02L138.87 3.78L142.30 3.78Q143.68 3.78 144.50 4.48Q145.32 5.18 145.32 6.40L145.32 6.40Q145.32 7.41 144.73 8.07Q144.14 8.74 143.12 8.93L143.12 8.93L145.81 13.02ZM139.57 4.42L139.57 8.36L142.28 8.36Q143.40 8.36 144.00 7.85Q144.59 7.35 144.59 6.40L144.59 6.40Q144.59 5.45 144.00 4.93Q143.40 4.42 142.28 4.42L142.28 4.42L139.57 4.42ZM160.52 3.78L157.25 9.42L157.25 13.02L156.55 13.02L156.55 9.42L153.27 3.78L154.10 3.78L156.90 8.69L159.70 3.78L160.52 3.78ZM172.07 3.78Q174.29 3.78 175.48 4.95Q176.68 6.12 176.68 8.33L176.68 8.33Q176.68 10.60 175.48 11.81Q174.29 13.02 172.07 13.02L172.07 13.02L169.16 13.02L169.16 3.78L172.07 3.78ZM172.13 12.38Q173.98 12.38 174.97 11.33Q175.95 10.29 175.95 8.33L175.95 8.33Q175.95 6.45 174.97 5.44Q173.98 4.42 172.13 4.42L172.13 4.42L169.86 4.42L169.86 12.38L172.13 12.38ZM192.07 13.02L190.90 10.12L186.48 10.12L185.33 13.02L184.59 13.02L188.29 3.78L189.11 3.78L192.81 13.02L192.07 13.02ZM186.75 9.48L190.65 9.48L189.04 5.45L188.71 4.47L188.69 4.47L188.36 5.42L186.75 9.48ZM206.56 3.78L203.28 9.42L203.28 13.02L202.58 13.02L202.58 9.42L199.30 3.78L200.13 3.78L202.93 8.69L205.73 3.78L206.56 3.78ZM213.78 11.87Q214.06 11.87 214.24 12.05Q214.41 12.22 214.41 12.50L214.41 12.50Q214.41 12.78 214.24 12.96Q214.06 13.13 213.78 13.13L213.78 13.13Q213.50 13.13 213.33 12.96Q213.15 12.78 213.15 12.50L213.15 12.50Q213.15 12.22 213.33 12.05Q213.50 11.87 213.78 11.87L213.78 11.87Z"></path></g></svg>